<svg width="20" height="20" viewBox="0 0 20 20" fill="none" xmlns="http://www.w3.org/2000/svg">
<path d="M7.30632 0.36698C6.83086 0.49966 6.36968 0.66659 5.92561 0.86495L9.7803 4.71967C10.0732 5.01256 10.0732 5.48744 9.7803 5.78033C9.4874 6.07322 9.0126 6.07322 8.7197 5.78033L4.55217 1.61283C4.17623 1.85752 3.81777 2.1268 3.47906 2.41839L7.28033 6.21967C7.57322 6.51256 7.57322 6.98744 7.28033 7.28033C6.98744 7.57322 6.51256 7.57322 6.21967 7.28033L2.41839 3.47906C2.1268 3.81777 1.85752 4.17623 1.61283 4.55217L5.78033 8.7197C6.07322 9.0126 6.07322 9.4874 5.78033 9.7803C5.48744 10.0732 5.01256 10.0732 4.71967 9.7803L0.86495 5.92561C0.66659 6.36968 0.49966 6.83086 0.36698 7.30632L4.78033 11.7197C5.07322 12.0126 5.07322 12.4874 4.78033 12.7803C4.48744 13.0732 4.01256 13.0732 3.71967 12.7803L0.0399001 9.1006C0.0134901 9.3968 0 9.6968 0 10C0 10.3332 0.0163 10.6626 0.04814 10.9875L4.53033 15.4697C4.82322 15.7626 4.82322 16.2374 4.53033 16.5303C4.23744 16.8232 3.76256 16.8232 3.46967 16.5303L0.75287 13.8135C2.25198 17.4446 5.82757 20 10 20C15.5228 20 20 15.5228 20 10C20 5.82757 17.4446 2.25198 13.8135 0.75287L16.5303 3.46967C16.8232 3.76256 16.8232 4.23744 16.5303 4.53033C16.2374 4.82322 15.7626 4.82322 15.4697 4.53033L10.9875 0.04814C10.6626 0.0163 10.3332 0 10 0C9.6968 0 9.3968 0.0134901 9.1006 0.0399001L12.7803 3.71967C13.0732 4.01256 13.0732 4.48744 12.7803 4.78033C12.4874 5.07322 12.0126 5.07322 11.7197 4.78033L7.30632 0.36698Z" fill="white"/>
</svg>
