<svg width="43" height="32" viewBox="0 0 43 32" fill="none" xmlns="http://www.w3.org/2000/svg">
<path d="M11.552 8.95551L10.1388 10.163C8.31878 11.7169 8.10324 14.4525 9.65741 16.2725L10.5466 17.3136C12.1007 19.1336 11.8852 21.8687 10.0654 23.4228L0.0218369 32L4.15668 23.2392C4.51297 22.4844 4.64368 21.6428 4.5331 20.8155C4.42252 19.9882 4.07535 19.2105 3.53333 18.5758L0.95642 15.5581C-0.597748 13.7383 -0.129017 11.3395 1.43755 9.44905L9.98658 0L11.552 8.95551Z" fill="url(#paint0_linear_5973_132781)"/>
<path d="M23.7179 13.1732C23.0409 13.8012 22.2461 14.0267 21.3629 14.0267C19.9991 14.0267 19.008 13.0946 19.3221 11.3971C19.6165 9.84647 20.9999 8.91455 22.2656 8.91455C23.6295 8.91455 24.5324 9.60125 24.2371 11.299L24.1293 11.8878H20.6167C20.5675 12.555 20.8424 12.9378 21.6272 12.9378C22.1081 12.9378 22.687 12.8396 23.2168 12.3587L23.7179 13.1732ZM22.9331 11.0245C23.0217 10.2592 22.7858 10.004 22.0691 10.004C21.5685 10.004 21.0192 10.3181 20.7737 11.0245H22.9331Z" fill="url(#paint1_linear_5973_132781)"/>
<path d="M25.8173 9.01268H27.1419L26.7875 11.034C27.0035 9.8272 27.6707 8.91455 28.9757 8.91455C30.2317 8.91455 30.7321 9.6604 30.4869 11.0633L29.9869 13.9189H28.6622L29.0842 11.5149C29.2313 10.6612 29.1529 10.1511 28.201 10.1511C27.416 10.1511 26.8666 10.5925 26.7095 11.4757L26.2778 13.9189H24.9531L25.8173 9.01268Z" fill="url(#paint2_linear_5973_132781)"/>
<path d="M18.1048 11.9957C17.8693 13.3203 16.7704 14.0267 15.0532 14.0267C14.0034 14.0267 13.0515 13.6344 12.4922 13.0162L13.2086 11.8574C13.699 12.4462 14.2583 12.7504 15.2789 12.7504C16.005 12.7504 16.623 12.5638 16.7311 11.9948C16.8198 11.4944 16.5249 11.3276 15.7786 11.1215C14.1505 10.6612 13.2967 9.97453 13.5127 8.77833C13.699 7.70884 14.6017 6.95325 16.2894 6.95325C17.2118 6.95325 18.0459 7.24764 18.6444 7.88539L17.9282 9.03352C17.3984 8.43542 16.9757 8.22897 16.2004 8.22897C15.4251 8.22897 14.9346 8.44473 14.866 8.85697C14.7678 9.40633 15.278 9.57314 16.2493 9.83807C17.6338 10.2197 18.3108 10.8083 18.1048 11.9957Z" fill="url(#paint3_linear_5973_132781)"/>
<path d="M34.2354 8.91452C35.57 8.91452 35.9231 9.81743 35.7171 11.0243L36.5022 6.55957H37.8266L36.5316 13.9286H35.207L35.5601 11.9172C35.3443 13.124 34.6771 14.0267 33.3425 14.0267C32.1356 14.0267 31.3114 13.0946 31.5863 11.5444L31.6058 11.4168C31.8913 9.83692 32.9599 8.91452 34.2354 8.91452ZM32.9304 11.5444C32.7833 12.3979 33.1267 12.8688 34.0196 12.8688C35.1283 12.8688 35.5209 12.1527 35.6287 11.5639L35.6582 11.3676C35.7563 10.779 35.6092 10.151 34.4808 10.151C33.8037 10.151 33.1074 10.5533 32.9501 11.4168L32.9304 11.5444Z" fill="url(#paint4_linear_5973_132781)"/>
<path d="M22.4499 21.6927C21.6159 22.6838 20.1636 23.0861 19.153 23.0861C17.328 23.0861 15.8746 21.7809 16.2485 19.6419C16.2585 19.5927 16.2585 19.5732 16.2682 19.534C16.27 19.5036 16.2766 19.4737 16.2879 19.4454C16.6607 17.2867 18.574 16.0119 20.4285 16.0119C21.4785 16.0119 22.6953 16.4239 23.2152 17.405L22.2536 18.3961C21.7924 17.5322 21.1646 17.2885 20.3207 17.2885C19.0549 17.2885 17.8773 18.1225 17.6518 19.4472C17.6405 19.4788 17.6338 19.5118 17.6321 19.5453C17.6224 19.5748 17.6224 19.614 17.6124 19.6435C17.3769 20.9779 18.0246 21.8119 19.5259 21.8119C20.1736 21.8119 21.0957 21.5667 21.8416 20.6835L22.4499 21.6927Z" fill="url(#paint5_linear_5973_132781)"/>
<path d="M24.6484 15.6179H25.9731L25.1883 20.0925C25.404 18.8855 26.0712 17.973 27.3764 17.973C28.6322 17.973 29.1328 18.7187 28.8874 20.1218L28.3863 22.9776H27.0616L27.4825 20.5736C27.6296 19.7199 27.5512 19.2098 26.5993 19.2098C25.8145 19.2098 25.2649 19.6512 25.1078 20.5344L24.6772 22.9776H23.3525L24.6484 15.6179Z" fill="url(#paint6_linear_5973_132781)"/>
<path d="M32.5662 17.9729C33.9009 17.9729 34.3229 18.8756 34.1168 20.0727L34.4702 18.071H35.7948L34.9309 22.987H33.6062L33.9607 20.9851C33.7447 22.1813 33.0775 23.0851 31.7431 23.0851C30.536 23.0851 29.7117 22.1529 29.9867 20.6025L30.0061 20.4749C30.2899 18.8951 31.3694 17.9729 32.5662 17.9729ZM31.3299 20.6025C31.1829 21.4563 31.5262 21.9272 32.4191 21.9272C33.5181 21.9272 33.9204 21.2206 34.0185 20.622L34.0579 20.4357C34.1558 19.8469 33.999 19.2092 32.8803 19.2092C32.2034 19.2092 31.5069 19.6115 31.3497 20.4749L31.3299 20.6025Z" fill="url(#paint7_linear_5973_132781)"/>
<path d="M42.0939 20.6025C41.8192 22.1532 40.6614 23.0851 39.4643 23.0851C38.1199 23.0851 37.7765 22.1724 37.9826 20.9656L37.1975 25.4403H35.873L37.168 18.0713H38.4934L38.139 20.1021C38.3547 18.8853 39.1006 17.9729 40.435 17.9729C41.6418 17.9729 42.3974 18.8951 42.1128 20.476L42.0939 20.6025ZM39.6896 19.2092C38.5414 19.2092 38.1784 19.8667 38.0705 20.4552L38.0508 20.6025C37.9429 21.1913 38.0705 21.9272 39.1889 21.9272C39.8856 21.9272 40.602 21.4563 40.7491 20.6025L40.7688 20.4749C40.9263 19.6106 40.5632 19.2092 39.6896 19.2092Z" fill="url(#paint8_linear_5973_132781)"/>
<defs>
<linearGradient id="paint0_linear_5973_132781" x1="-12.4662" y1="6.12718" x2="35.1016" y2="33.0086" gradientUnits="userSpaceOnUse">
<stop stop-color="#AB7AE6"/>
<stop offset="1" stop-color="#710BEC"/>
</linearGradient>
<linearGradient id="paint1_linear_5973_132781" x1="-6.44591" y1="-4.5258" x2="41.1219" y2="22.3558" gradientUnits="userSpaceOnUse">
<stop stop-color="#AB7AE6"/>
<stop offset="1" stop-color="#710BEC"/>
</linearGradient>
<linearGradient id="paint2_linear_5973_132781" x1="-5.11767" y1="-6.87633" x2="42.4504" y2="20.0053" gradientUnits="userSpaceOnUse">
<stop stop-color="#AB7AE6"/>
<stop offset="1" stop-color="#710BEC"/>
</linearGradient>
<linearGradient id="paint3_linear_5973_132781" x1="-7.53366" y1="-2.60147" x2="40.0341" y2="24.2801" gradientUnits="userSpaceOnUse">
<stop stop-color="#AB7AE6"/>
<stop offset="1" stop-color="#710BEC"/>
</linearGradient>
<linearGradient id="paint4_linear_5973_132781" x1="-2.68449" y1="-11.1827" x2="44.8833" y2="15.6987" gradientUnits="userSpaceOnUse">
<stop stop-color="#AB7AE6"/>
<stop offset="1" stop-color="#710BEC"/>
</linearGradient>
<linearGradient id="paint5_linear_5973_132781" x1="-10.391" y1="2.45503" x2="37.1768" y2="29.3364" gradientUnits="userSpaceOnUse">
<stop stop-color="#AB7AE6"/>
<stop offset="1" stop-color="#710BEC"/>
</linearGradient>
<linearGradient id="paint6_linear_5973_132781" x1="-9.11995" y1="0.206218" x2="38.4478" y2="27.0878" gradientUnits="userSpaceOnUse">
<stop stop-color="#AB7AE6"/>
<stop offset="1" stop-color="#710BEC"/>
</linearGradient>
<linearGradient id="paint7_linear_5973_132781" x1="-7.52889" y1="-2.60919" x2="40.0391" y2="24.2724" gradientUnits="userSpaceOnUse">
<stop stop-color="#AB7AE6"/>
<stop offset="1" stop-color="#710BEC"/>
</linearGradient>
<linearGradient id="paint8_linear_5973_132781" x1="-6.8229" y1="-3.85832" x2="40.7451" y2="23.023" gradientUnits="userSpaceOnUse">
<stop stop-color="#AB7AE6"/>
<stop offset="1" stop-color="#710BEC"/>
</linearGradient>
</defs>
</svg>
