<svg width="64" height="48" viewBox="0 0 64 48" fill="none" xmlns="http://www.w3.org/2000/svg">
<path d="M17.3281 13.4333L15.2081 15.2445C12.4782 17.5754 12.1549 21.6787 14.4861 24.4087L15.8199 25.9704C18.1511 28.7004 17.8278 32.803 15.0982 35.1342L0.0327553 48L6.23502 34.8588C6.76946 33.7266 6.96552 32.4642 6.79965 31.2233C6.63378 29.9824 6.11303 28.8157 5.3 27.8637L1.43463 23.3371C-0.896622 20.6074 -0.193526 17.0092 2.15633 14.1736L14.9799 0L17.3281 13.4333Z" fill="url(#paint0_linear_17958_406)"/>
<path d="M35.5769 19.7598C34.5614 20.7018 33.3692 21.0401 32.0444 21.0401C29.9986 21.0401 28.512 19.6419 28.9832 17.0956C29.4248 14.7697 31.4998 13.3718 33.3984 13.3718C35.4443 13.3718 36.7986 14.4019 36.3557 16.9484L36.1939 17.8316H30.925C30.8512 18.8325 31.2636 19.4066 32.4408 19.4066C33.1622 19.4066 34.0304 19.2594 34.8252 18.5381L35.5769 19.7598ZM34.3996 16.5368C34.5325 15.3887 34.1786 15.006 33.1037 15.006C32.3528 15.006 31.5287 15.4771 31.1606 16.5368H34.3996Z" fill="url(#paint1_linear_17958_406)"/>
<path d="M38.7259 13.519H40.7129L40.1813 16.551C40.5052 14.7408 41.5061 13.3718 43.4635 13.3718C45.3475 13.3718 46.0981 14.4906 45.7303 16.5949L44.9803 20.8783H42.9933L43.6263 17.2724C43.8469 15.9918 43.7293 15.2266 42.3015 15.2266C41.1239 15.2266 40.2999 15.8888 40.0643 17.2136L39.4167 20.8783H37.4297L38.7259 13.519Z" fill="url(#paint2_linear_17958_406)"/>
<path d="M27.1572 17.9935C26.804 19.9805 25.1555 21.0401 22.5797 21.0401C21.0051 21.0401 19.5773 20.4517 18.7383 19.5243L19.8129 17.7861C20.5485 18.6693 21.3875 19.1255 22.9183 19.1255C24.0075 19.1255 24.9346 18.8458 25.0967 17.9921C25.2296 17.2415 24.7874 16.9913 23.6679 16.6823C21.2257 15.9918 19.9451 14.9618 20.2691 13.1675C20.5485 11.5633 21.9026 10.4299 24.4342 10.4299C25.8178 10.4299 27.0688 10.8715 27.9666 11.8281L26.8923 13.5503C26.0975 12.6531 25.4636 12.3435 24.3006 12.3435C23.1376 12.3435 22.402 12.6671 22.299 13.2855C22.1518 14.1095 22.917 14.3597 24.374 14.7571C26.4507 15.3296 27.4662 16.2125 27.1572 17.9935Z" fill="url(#paint3_linear_17958_406)"/>
<path d="M51.3531 13.3718C53.3551 13.3718 53.8847 14.7261 53.5757 16.5364L54.7533 9.83936H56.7399L54.7975 20.8929H52.8104L53.3401 17.8758C53.0165 19.686 52.0156 21.0401 50.0137 21.0401C48.2034 21.0401 46.967 19.6418 47.3794 17.3166L47.4086 17.1252C47.8369 14.7554 49.4398 13.3718 51.3531 13.3718ZM49.3956 17.3166C49.175 18.5968 49.69 19.3032 51.0295 19.3032C52.6925 19.3032 53.2813 18.229 53.4431 17.3458L53.4873 17.0514C53.6345 16.1686 53.4139 15.2265 51.7212 15.2265C50.7055 15.2265 49.6611 15.83 49.4252 17.1252L49.3956 17.3166Z" fill="url(#paint4_linear_17958_406)"/>
<path d="M33.6748 32.5391C32.4238 34.0257 30.2454 34.6291 28.7296 34.6291C25.9919 34.6291 23.8119 32.6713 24.3728 29.4629C24.3877 29.3891 24.3877 29.3599 24.4023 29.301C24.405 29.2554 24.4149 29.2106 24.4319 29.1681C24.9911 25.9301 27.861 24.0179 30.6428 24.0179C32.2178 24.0179 34.043 24.6359 34.8228 26.1075L33.3804 27.5941C32.6886 26.2983 31.747 25.9328 30.481 25.9328C28.5824 25.9328 26.816 27.1838 26.4777 29.1708C26.4607 29.2182 26.4508 29.2677 26.4482 29.318C26.4335 29.3622 26.4335 29.421 26.4186 29.4652C26.0654 31.4668 27.0369 32.7178 29.2888 32.7178C30.2604 32.7178 31.6436 32.35 32.7624 31.0252L33.6748 32.5391Z" fill="url(#paint5_linear_17958_406)"/>
<path d="M36.9731 23.4268H38.9601L37.7829 30.1388C38.1065 28.3282 39.1073 26.9595 41.0651 26.9595C42.9488 26.9595 43.6997 28.078 43.3316 30.1826L42.5799 34.4663H40.5929L41.2243 30.8605C41.4449 29.5799 41.3273 28.8146 39.8995 28.8146C38.7222 28.8146 37.8978 29.4769 37.6623 30.8017L37.0163 34.4663H35.0293L36.9731 23.4268Z" fill="url(#paint6_linear_17958_406)"/>
<path d="M48.8493 26.9594C50.8513 26.9594 51.4843 28.3134 51.1753 30.109L51.7053 27.1066H53.6923L52.3964 34.4804H50.4094L50.941 31.4776C50.617 33.2719 49.6162 34.6276 47.6146 34.6276C45.804 34.6276 44.5676 33.2294 44.98 30.9038L45.0092 30.7124C45.4349 28.3426 47.054 26.9594 48.8493 26.9594ZM46.9949 30.9038C46.7743 32.1844 47.2893 32.8908 48.6287 32.8908C50.2771 32.8908 50.8805 31.8309 51.0277 30.933L51.0869 30.6536C51.2338 29.7704 50.9985 28.8138 49.3205 28.8138C48.3051 28.8138 47.2604 29.4172 47.0245 30.7124L46.9949 30.9038Z" fill="url(#paint7_linear_17958_406)"/>
<path d="M63.1409 30.9038C62.7289 33.2297 60.9921 34.6276 59.1964 34.6276C57.1799 34.6276 56.6648 33.2586 56.9738 31.4484L55.7963 38.1604H53.8096L55.7521 27.1069H57.7401L57.2084 30.1532C57.5321 28.328 58.6508 26.9594 60.6525 26.9594C62.4627 26.9594 63.5961 28.3426 63.1691 30.7141L63.1409 30.9038ZM59.5344 28.8138C57.8122 28.8138 57.2676 29.8 57.1057 30.6828L57.0762 30.9038C56.9144 31.787 57.1057 32.8908 58.7834 32.8908C59.8284 32.8908 60.903 32.1844 61.1236 30.9038L61.1532 30.7124C61.3895 29.4159 60.8449 28.8138 59.5344 28.8138Z" fill="url(#paint8_linear_17958_406)"/>
<defs>
<linearGradient id="paint0_linear_17958_406" x1="-18.6993" y1="9.19076" x2="52.6524" y2="49.5128" gradientUnits="userSpaceOnUse">
<stop stop-color="#AB7AE6"/>
<stop offset="1" stop-color="#710BEC"/>
</linearGradient>
<linearGradient id="paint1_linear_17958_406" x1="-9.66887" y1="-6.78871" x2="61.6828" y2="33.5337" gradientUnits="userSpaceOnUse">
<stop stop-color="#AB7AE6"/>
<stop offset="1" stop-color="#710BEC"/>
</linearGradient>
<linearGradient id="paint2_linear_17958_406" x1="-7.6765" y1="-10.3145" x2="63.6755" y2="30.0079" gradientUnits="userSpaceOnUse">
<stop stop-color="#AB7AE6"/>
<stop offset="1" stop-color="#710BEC"/>
</linearGradient>
<linearGradient id="paint3_linear_17958_406" x1="-11.3005" y1="-3.90221" x2="60.0512" y2="36.4202" gradientUnits="userSpaceOnUse">
<stop stop-color="#AB7AE6"/>
<stop offset="1" stop-color="#710BEC"/>
</linearGradient>
<linearGradient id="paint4_linear_17958_406" x1="-4.02673" y1="-16.774" x2="67.3249" y2="23.5481" gradientUnits="userSpaceOnUse">
<stop stop-color="#AB7AE6"/>
<stop offset="1" stop-color="#710BEC"/>
</linearGradient>
<linearGradient id="paint5_linear_17958_406" x1="-15.5865" y1="3.68254" x2="55.7652" y2="44.0046" gradientUnits="userSpaceOnUse">
<stop stop-color="#AB7AE6"/>
<stop offset="1" stop-color="#710BEC"/>
</linearGradient>
<linearGradient id="paint6_linear_17958_406" x1="-13.6794" y1="0.309328" x2="57.6723" y2="40.6317" gradientUnits="userSpaceOnUse">
<stop stop-color="#AB7AE6"/>
<stop offset="1" stop-color="#710BEC"/>
</linearGradient>
<linearGradient id="paint7_linear_17958_406" x1="-11.2933" y1="-3.91378" x2="60.0587" y2="36.4086" gradientUnits="userSpaceOnUse">
<stop stop-color="#AB7AE6"/>
<stop offset="1" stop-color="#710BEC"/>
</linearGradient>
<linearGradient id="paint8_linear_17958_406" x1="-10.2343" y1="-5.78749" x2="61.1177" y2="34.5346" gradientUnits="userSpaceOnUse">
<stop stop-color="#AB7AE6"/>
<stop offset="1" stop-color="#710BEC"/>
</linearGradient>
</defs>
</svg>
